<svg width="61" height="61" viewBox="0 0 61 61" fill="none" xmlns="http://www.w3.org/2000/svg">
<path fill-rule="evenodd" clip-rule="evenodd" d="M30.9277 60.5C47.4963 60.5 60.9277 47.0685 60.9277 30.5C60.9277 13.9315 47.4963 0.5 30.9277 0.5C14.3592 0.5 0.927734 13.9315 0.927734 30.5C0.927734 47.0685 14.3592 60.5 30.9277 60.5ZM32.5723 16.6679C32.1818 16.2774 31.5487 16.2774 31.1581 16.6679C30.7676 17.0584 30.7676 17.6916 31.1581 18.0821L42.576 29.5H15.9277C15.3754 29.5 14.9277 29.9477 14.9277 30.5C14.9277 31.0523 15.3754 31.5 15.9277 31.5H42.697L32.0699 42.9445C31.6941 43.3493 31.7176 43.982 32.1223 44.3578C32.527 44.7336 33.1597 44.7102 33.5355 44.3055L45.723 31.1805C46.089 30.7863 46.0777 30.1732 45.6973 29.7929L32.5723 16.6679Z" fill="white"/>
</svg>
