<svg width="126" height="49" viewBox="0 0 126 49" fill="none" xmlns="http://www.w3.org/2000/svg">
<path d="M29.5388 33.683C23.0272 37.9058 16.2658 37.6764 16.2658 37.6764C16.2658 37.6764 16.08 36.8138 16.154 35.3265C16.2285 33.8379 17.0404 34.2572 17.628 33.0826C17.8406 32.6557 18.0246 32.3616 18.3577 31.3611C18.3711 31.3191 17.9681 24.1937 17.8656 21.1694C17.8103 19.5399 17.5045 16.8202 17.1452 14.1762C16.9338 12.6096 16.458 11.368 16.2373 9.88004C15.9187 7.73165 15.5489 5.30954 15.5489 5.30954C15.2839 5.99325 14.9042 8.55281 14.5233 11.4408C14.3405 12.828 14.157 14.2892 13.9858 15.6561C13.623 18.5499 12.7191 26.2984 12.5823 26.7189C12.3761 27.3566 12.354 26.5494 12.354 26.5494C12.354 26.5494 12.8892 18.4229 13.0511 14.8594C13.1297 13.1163 13.2613 11.2015 13.4786 9.36465C13.6416 7.98558 13.853 6.64902 14.1267 5.46272C14.1267 5.46272 15.0568 2.651 15.3538 2.59509C15.6502 2.53976 16.7236 4.36726 17.087 5.99442C17.9081 9.66573 18.3927 10.1357 19.0181 13.9934C19.6133 17.6583 20.1567 20.7239 20.2306 21.2265C20.4962 23.0459 20.3646 28.7194 19.9057 30.9796C19.7968 31.5957 19.7642 31.8223 19.3617 32.2305C18.4177 33.1851 17.7468 34.3224 17.7468 35.0673C17.7468 35.8116 17.6228 35.797 17.7992 36.228C17.7992 36.228 19.0438 38.0916 26.1971 33.8268C26.1971 33.8268 28.4329 32.6563 28.4329 30.0717V3.92814C28.4329 3.92814 21.3395 1.52934 15.8762 1.52934C10.4129 1.52934 3.5723 3.9229 3.5723 3.9229V29.954C3.5723 31.5556 3.80526 34.5606 6.09342 35.5868C6.09342 35.5868 0 33.5007 0 29.9214V1.71161C0 1.71161 9.30116 7.62939e-06 15.8803 7.62939e-06C22.4594 7.62939e-06 31.9248 1.71161 31.9248 1.71161C31.9248 1.71161 31.9248 27.5226 31.9248 29.9552C31.9248 32.3884 29.5388 33.683 29.5388 33.683Z" fill="white"/>
<path d="M117.925 11.8333C117.275 12.1956 116.401 12.3773 115.303 12.3773C114.197 12.3773 113.337 12.0424 112.723 11.3721C112.11 10.7024 111.803 9.76764 111.803 8.56678C111.803 7.35776 112.11 6.39452 112.723 5.67936C113.319 4.99041 114.111 4.64622 115.095 4.64622C115.533 4.64622 115.911 4.69398 116.227 4.79007V1.75354H117.925V11.8333ZM116.227 11.1188V5.70731C116.003 5.64267 115.752 5.60948 115.473 5.60948C114.152 5.60948 113.492 6.56224 113.492 8.46894C113.492 10.3483 114.111 11.2877 115.348 11.2877C115.757 11.2877 116.051 11.2312 116.227 11.1188Z" fill="white"/>
<path d="M125.686 8.42818L121.081 9.09733C121.22 10.4904 121.905 11.1869 123.133 11.1869C123.858 11.1869 124.491 11.0495 125.031 10.7763L125.434 11.8479C124.793 12.2008 123.965 12.3773 122.951 12.3773C121.873 12.3773 121.021 12.0372 120.397 11.3593C119.775 10.6808 119.463 9.71407 119.463 8.45905C119.463 7.24071 119.749 6.29086 120.321 5.60773C120.894 4.9246 121.676 4.58274 122.672 4.58274C123.676 4.58274 124.439 4.91004 124.96 5.56522C125.482 6.22039 125.723 7.17432 125.686 8.42818ZM124.095 7.76194C124.095 6.33919 123.602 5.62752 122.614 5.62752C122.093 5.62752 121.693 5.83718 121.414 6.25591C121.106 6.71075 120.962 7.37174 120.98 8.23599L124.095 7.76194Z" fill="white"/>
<path d="M40.1183 32.2964H37.4492V15.7982H40.1183V32.2964Z" fill="white"/>
<path d="M52.4273 26.4126C52.4273 28.2348 52.0266 29.6844 51.2247 30.7623C50.3494 31.9283 49.1176 32.5112 47.5289 32.5112C45.9396 32.5112 44.7085 31.9283 43.8337 30.7623C43.0318 29.6844 42.6311 28.2348 42.6311 26.4126C42.6311 24.5775 43.0318 23.1198 43.8337 22.0412C44.7085 20.8747 45.9396 20.2924 47.5289 20.2924C49.1322 20.2924 50.3645 20.8747 51.2247 22.0412C52.0266 23.1198 52.4273 24.5775 52.4273 26.4126ZM49.7792 26.3928C49.7792 23.4477 49.0291 21.9749 47.5289 21.9749C46.0281 21.9749 45.278 23.4477 45.278 26.3928C45.278 29.2633 46.0281 30.6994 47.5289 30.6994C49.0291 30.6994 49.7792 29.2633 49.7792 26.3928Z" fill="white"/>
<path d="M61.5752 28.9046C61.5752 29.8952 61.188 30.7408 60.4152 31.4408C59.6423 32.1403 58.629 32.4891 57.3746 32.4891C56.0328 32.4891 54.9466 32.2061 54.115 31.6388L54.815 29.9354C55.3846 30.3879 56.1213 30.6133 57.0257 30.6133C57.565 30.6133 58.0024 30.4572 58.3384 30.1439C58.6738 29.8305 58.8416 29.4334 58.8416 28.9523C58.8416 28.4561 58.7105 28.0665 58.4479 27.7823C58.1858 27.4981 57.7415 27.2384 57.1148 27.006C55.3223 26.3211 54.426 25.2199 54.426 23.7039C54.426 22.7413 54.7713 21.9329 55.4638 21.276C56.1556 20.6203 57.0554 20.2924 58.1619 20.2924C59.3564 20.2924 60.3761 20.5696 61.2212 21.124L60.5666 22.676C60.0279 22.2375 59.4024 22.018 58.6896 22.018C58.166 22.018 57.7543 22.1682 57.4567 22.4664C57.1585 22.7652 57.0088 23.1338 57.0088 23.5706C57.0088 24.3434 57.5912 24.9619 58.7565 25.4284C60.6353 26.1866 61.5752 27.345 61.5752 28.9046Z" fill="white"/>
<path d="M81.2581 32.2964H78.1453L76.8856 28.091H71.6104L70.3036 32.2964H67.5938L73.0122 15.9409H75.8635L81.2581 32.2964ZM76.4581 26.3322L74.771 20.5731C74.5328 19.7642 74.3907 19.1055 74.3423 18.5977H74.2958C74.2166 19.0257 74.0651 19.6838 73.8438 20.5731L72.085 26.3322H76.4581Z" fill="white"/>
<path d="M92.2323 32.2964H89.5638V23.9427C89.5638 22.6312 88.858 21.9749 87.4451 21.9749C86.7748 21.9749 86.1621 22.0849 85.6089 22.3033V32.2964H82.9404V21.1444C84.15 20.5772 85.6875 20.2924 87.554 20.2924C89.2004 20.2924 90.4187 20.6564 91.2055 21.3855C91.8898 21.9982 92.2323 22.8362 92.2323 23.9008V32.2964Z" fill="white"/>
<path d="M104.261 31.6586C103.24 32.227 101.868 32.5112 100.149 32.5112C98.4131 32.5112 97.0637 31.9865 96.101 30.9365C95.1378 29.8882 94.6567 28.4229 94.6567 26.543C94.6567 24.6474 95.1378 23.1396 96.101 22.0174C97.0346 20.9394 98.2745 20.3989 99.8195 20.3989C100.505 20.3989 101.096 20.4735 101.592 20.6208V15.8511H104.261V31.6586ZM101.592 30.544V22.0639C101.242 21.962 100.848 21.9102 100.411 21.9102C98.3397 21.9102 97.3042 23.4046 97.3042 26.3916C97.3042 29.3349 98.2745 30.8066 100.214 30.8066C100.856 30.8066 101.314 30.7198 101.592 30.544Z" fill="white"/>
<path d="M116.397 26.327L109.185 27.3764C109.403 29.5632 110.474 30.6569 112.397 30.6569C113.533 30.6569 114.524 30.4385 115.369 30.0012L116.003 31.6813C114.997 32.2346 113.701 32.5112 112.113 32.5112C110.423 32.5112 109.09 31.9789 108.114 30.9149C107.138 29.8521 106.65 28.3362 106.65 26.3695C106.65 24.4604 107.098 22.9707 107.994 21.8997C108.89 20.8287 110.118 20.2924 111.677 20.2924C113.25 20.2924 114.445 20.8072 115.261 21.8339C116.078 22.8612 116.456 24.3597 116.397 26.327ZM113.902 25.2781C113.902 23.0482 113.13 21.9323 111.585 21.9323C110.769 21.9323 110.143 22.2602 109.705 22.9166C109.225 23.6317 108.999 24.6666 109.027 26.0218L113.902 25.2781Z" fill="white"/>
<path d="M125.573 28.9046C125.573 29.8952 125.186 30.7408 124.413 31.4408C123.64 32.1403 122.627 32.4891 121.372 32.4891C120.031 32.4891 118.944 32.2061 118.112 31.6388L118.813 29.9354C119.382 30.3879 120.119 30.6133 121.023 30.6133C121.563 30.6133 122.001 30.4572 122.336 30.1439C122.671 29.8305 122.839 29.4334 122.839 28.9523C122.839 28.4561 122.708 28.0665 122.446 27.7823C122.183 27.4981 121.739 27.2384 121.112 27.006C119.32 26.3211 118.424 25.2199 118.424 23.7039C118.424 22.7413 118.77 21.9329 119.461 21.276C120.153 20.6203 121.054 20.2924 122.16 20.2924C123.355 20.2924 124.374 20.5696 125.218 21.124L124.564 22.676C124.026 22.2375 123.4 22.018 122.687 22.018C122.164 22.018 121.752 22.1682 121.454 22.4664C121.156 22.7652 121.006 23.1338 121.006 23.5706C121.006 24.3434 121.589 24.9619 122.754 25.4284C124.634 26.1866 125.573 27.345 125.573 28.9046Z" fill="white"/>
<path d="M51.5276 12.2637H49.8282V6.93323C49.8282 6.09635 49.3769 5.67762 48.4748 5.67762C48.0473 5.67762 47.6566 5.74749 47.3031 5.88726V12.2637H45.6042V5.14998C46.3753 4.78716 47.356 4.60546 48.5447 4.60546C49.5947 4.60546 50.3704 4.839 50.8719 5.30257C51.3086 5.69334 51.5276 6.22854 51.5276 6.90759V12.2637Z" fill="white"/>
<path d="M55.1901 2.60499C55.1901 2.83736 55.0998 3.03595 54.9181 3.19843C54.737 3.36208 54.5157 3.44303 54.2554 3.44303C53.995 3.44303 53.7743 3.36208 53.5926 3.19843C53.4115 3.03595 53.3201 2.83736 53.3201 2.60499C53.3201 2.37204 53.4115 2.17228 53.5926 2.00456C53.7743 1.83741 53.995 1.75355 54.2554 1.75355C54.5157 1.75355 54.737 1.83451 54.9181 1.99757C55.0998 2.16064 55.1901 2.3633 55.1901 2.60499ZM55.101 12.2637H53.4022V4.74231H55.101V12.2637Z" fill="white"/>
<path d="M62.8467 4.74231L60.4327 12.2637H58.8143L56.3584 4.74231H58.1725L59.498 9.59702C59.6005 9.95926 59.6599 10.3034 59.6797 10.629H59.7071C59.7537 10.3588 59.8183 10.0146 59.9022 9.59702L61.2556 4.74231H62.8467Z" fill="white"/>
<path d="M69.9719 8.45144L65.3688 9.11942C65.508 10.5131 66.1922 11.2096 67.4187 11.2096C68.145 11.2096 68.7768 11.0727 69.3173 10.7984L69.722 11.8712C69.0803 12.2241 68.2521 12.4005 67.2382 12.4005C66.159 12.4005 65.3076 12.0599 64.6845 11.3814C64.0613 10.7029 63.7498 9.73791 63.7498 8.48172C63.7498 7.26397 64.0357 6.31353 64.6082 5.63098C65.1801 4.94785 65.9634 4.60542 66.9587 4.60542C67.9627 4.60542 68.7262 4.9333 69.2468 5.58847C69.7675 6.24306 70.0092 7.19641 69.9719 8.45144ZM68.3826 7.78462C68.3826 6.36128 67.8893 5.65079 66.9016 5.65079C66.3803 5.65079 65.9791 5.85987 65.7001 6.27918C65.3926 6.73401 65.2482 7.39501 65.2669 8.25985L68.3826 7.78462Z" fill="white"/>
<path d="M75.1436 4.61536L74.8076 5.85873C74.556 5.77545 74.2951 5.73352 74.0243 5.73352C73.6993 5.73352 73.4285 5.7941 73.2136 5.91523V12.2637H71.5154V5.14532C72.3429 4.7458 73.5519 4.56819 75.1436 4.61536Z" fill="white"/>
<path d="M80.5654 10.1013C80.5654 10.7344 80.3191 11.2742 79.8252 11.7209C79.332 12.1682 78.6855 12.3912 77.8859 12.3912C77.0292 12.3912 76.3356 12.2095 75.8057 11.8455L76.2523 10.7577C76.6146 11.0465 77.0846 11.1921 77.6617 11.1921C78.0065 11.1921 78.286 11.0914 78.4997 10.891C78.7141 10.6924 78.8212 10.4385 78.8212 10.131C78.8212 9.81537 78.7368 9.5667 78.5708 9.38499C78.4025 9.20387 78.1194 9.03848 77.7199 8.88939C76.5773 8.45202 76.0048 7.75085 76.0048 6.78235C76.0048 6.16852 76.225 5.65195 76.667 5.2338C77.1084 4.81566 77.6815 4.60543 78.3885 4.60543C79.1508 4.60543 79.8008 4.78305 80.3395 5.1348L79.9207 6.12368C79.5777 5.84414 79.1776 5.70495 78.7234 5.70495C78.3879 5.70495 78.1259 5.80046 77.9354 5.99148C77.745 6.18191 77.6495 6.41662 77.6495 6.69616C77.6495 7.18943 78.021 7.58486 78.7653 7.88246C79.965 8.36699 80.5654 9.10662 80.5654 10.1013Z" fill="white"/>
<path d="M83.8927 2.60499C83.8927 2.83736 83.8013 3.03595 83.6207 3.19843C83.439 3.36208 83.2177 3.44303 82.9574 3.44303C82.6971 3.44303 82.477 3.36208 82.2953 3.19843C82.1141 3.03595 82.0227 2.83736 82.0227 2.60499C82.0227 2.37204 82.1141 2.17228 82.2953 2.00456C82.477 1.83741 82.6971 1.75355 82.9574 1.75355C83.2177 1.75355 83.439 1.83451 83.6207 1.99757C83.8013 2.16064 83.8927 2.3633 83.8927 2.60499ZM83.8036 12.2637H82.1048V4.74231H83.8036V12.2637Z" fill="white"/>
<path d="M91.529 11.856C90.8773 12.2188 90.0043 12.4005 88.9059 12.4005C87.8 12.4005 86.9398 12.0651 86.326 11.3954C85.7122 10.7256 85.4053 9.79033 85.4053 8.59005C85.4053 7.38045 85.7128 6.41777 86.3266 5.70203C86.9218 5.01366 87.7132 4.66948 88.6992 4.66948C89.1366 4.66948 89.5134 4.71723 89.8296 4.81274V1.77623H91.529V11.856ZM89.8296 11.142V5.72998C89.6071 5.66592 89.3561 5.63273 89.0766 5.63273C87.7552 5.63273 87.0959 6.58551 87.0959 8.49163C87.0959 10.3704 87.7138 11.3098 88.9508 11.3098C89.3602 11.3098 89.6537 11.2544 89.8296 11.142Z" fill="white"/>
<path d="M98.7708 11.856C98.0929 12.2188 97.1867 12.4005 96.0511 12.4005C94.0063 12.4005 92.9849 11.6382 92.9849 10.1135C92.9849 9.20387 93.3978 8.52075 94.2247 8.06533C94.8758 7.71299 95.8606 7.47072 97.1815 7.34085V6.93609C97.1815 6.10911 96.6835 5.69622 95.6888 5.69622C95.0669 5.69622 94.4391 5.84879 93.8066 6.15221L93.417 5.17673C94.1968 4.79643 95.057 4.60542 95.9958 4.60542C97.846 4.60542 98.7708 5.47024 98.7708 7.19932V11.856ZM97.1815 11.2463V8.14744C96.2904 8.25984 95.6591 8.43106 95.2876 8.66401C94.8246 8.95229 94.5916 9.41761 94.5916 10.0594C94.5916 10.99 95.1158 11.4553 96.1641 11.4553C96.5642 11.4553 96.9025 11.386 97.1815 11.2463Z" fill="white"/>
<path d="M106.43 11.856C105.779 12.2188 104.905 12.4005 103.808 12.4005C102.702 12.4005 101.841 12.0651 101.228 11.3954C100.614 10.7256 100.307 9.79033 100.307 8.59005C100.307 7.38045 100.615 6.41777 101.229 5.70203C101.824 5.01366 102.615 4.66948 103.601 4.66948C104.039 4.66948 104.415 4.71723 104.731 4.81274V1.77623H106.43V11.856ZM104.731 11.142V5.72998C104.508 5.66592 104.257 5.63273 103.978 5.63273C102.657 5.63273 101.997 6.58551 101.997 8.49163C101.997 10.3704 102.615 11.3098 103.854 11.3098C104.262 11.3098 104.555 11.2544 104.731 11.142Z" fill="white"/>
<path d="M37.4277 1.79317H39.2372V9.8789C39.2372 10.7682 39.7159 11.2131 40.6739 11.2131C41.1287 11.2131 41.5434 11.1392 41.9184 10.9901V1.79317H43.7273V11.7757C42.9073 12.1607 41.8649 12.354 40.5999 12.354C39.4835 12.354 38.6583 12.1071 38.1243 11.6132C37.6607 11.198 37.4277 10.629 37.4277 9.90802V1.79317Z" fill="white"/>
<path d="M90.5995 47.914C90.2367 48.1959 89.7143 48.3368 89.0294 48.3368C88.0365 48.3368 87.2823 47.9175 86.7651 47.0794C86.3359 46.3817 86.1216 45.5029 86.1216 44.443C86.1216 43.4093 86.3429 42.5346 86.7855 41.8165C87.3091 40.9709 88.0603 40.5487 89.0393 40.5487C89.684 40.5487 90.2035 40.689 90.5995 40.9709L90.2978 41.8066C90.002 41.6319 89.6729 41.5445 89.3118 41.5445C88.6608 41.5445 88.1879 41.8864 87.8926 42.5707C87.6777 43.061 87.57 43.6813 87.57 44.4325C87.57 45.1506 87.6847 45.7609 87.9124 46.2647C88.2141 46.935 88.6806 47.2705 89.3118 47.2705C89.6729 47.2705 89.9921 47.1831 90.267 47.0084L90.5995 47.914Z" fill="white"/>
<path d="M95.6608 45.4995C95.6608 46.2979 95.4901 46.9449 95.1471 47.4411C94.7511 48.0182 94.171 48.3065 93.4064 48.3065C92.6423 48.3065 92.0617 48.0182 91.6657 47.4411C91.3232 46.9449 91.1526 46.2979 91.1526 45.4995C91.1526 44.694 91.3232 44.0435 91.6657 43.5467C92.0547 42.9708 92.6347 42.6813 93.4064 42.6813C94.178 42.6813 94.7587 42.9708 95.1471 43.5467C95.4901 44.0435 95.6608 44.694 95.6608 45.4995ZM94.4436 45.4843C94.4436 44.1326 94.0971 43.4565 93.4064 43.4565C92.7157 43.4565 92.3703 44.1326 92.3703 45.4843C92.3703 46.8022 92.7157 47.4615 93.4064 47.4615C94.0971 47.4615 94.4436 46.8022 94.4436 45.4843Z" fill="white"/>
<path d="M98.0554 48.2063H96.8179V40.5882H98.0554V48.2063Z" fill="white"/>
<path d="M103.711 45.4995C103.711 46.2979 103.54 46.9449 103.198 47.4411C102.801 48.0182 102.222 48.3065 101.457 48.3065C100.692 48.3065 100.112 48.0182 99.7163 47.4411C99.3739 46.9449 99.2026 46.2979 99.2026 45.4995C99.2026 44.694 99.3739 44.0435 99.7163 43.5467C100.105 42.9708 100.685 42.6813 101.457 42.6813C102.228 42.6813 102.808 42.9708 103.198 43.5467C103.54 44.0435 103.711 44.694 103.711 45.4995ZM102.493 45.4843C102.493 44.1326 102.147 43.4565 101.457 43.4565C100.765 43.4565 100.42 44.1326 100.42 45.4843C100.42 46.8022 100.765 47.4615 101.457 47.4615C102.147 47.4615 102.493 46.8022 102.493 45.4843Z" fill="white"/>
<path d="M112.143 48.2063H110.916V44.3527C110.916 43.7622 110.611 43.4663 110 43.4663C109.645 43.4663 109.343 43.591 109.094 43.8385V48.2063H107.866V44.33C107.866 43.7546 107.528 43.4663 106.85 43.4663C106.555 43.4663 106.287 43.517 106.045 43.6172V48.2063H104.818V43.0738C105.362 42.8123 106.038 42.6813 106.85 42.6813C107.615 42.6813 108.179 42.8793 108.541 43.2748C108.971 42.8793 109.551 42.6813 110.282 42.6813C110.818 42.6813 111.263 42.8257 111.615 43.1146C111.967 43.4029 112.143 43.8123 112.143 44.3422V48.2063Z" fill="white"/>
<path d="M117.869 45.3684C117.869 46.2606 117.658 46.9618 117.235 47.4714C116.779 48.0281 116.115 48.3065 115.243 48.3065C114.451 48.3065 113.854 48.1755 113.451 47.914V40.5987H114.669V42.9329C114.991 42.7862 115.347 42.7116 115.736 42.7116C116.44 42.7116 116.984 42.9906 117.366 43.5467C117.702 44.0301 117.869 44.6375 117.869 45.3684ZM116.652 45.4436C116.652 44.0988 116.236 43.4268 115.404 43.4268C115.108 43.4268 114.864 43.4804 114.669 43.5875V47.451C114.837 47.525 115.045 47.5617 115.293 47.5617C116.198 47.5617 116.652 46.8558 116.652 45.4436Z" fill="white"/>
<path d="M120.304 41.2428C120.304 41.417 120.237 41.5614 120.103 41.6755C119.968 41.7897 119.811 41.8462 119.63 41.8462C119.449 41.8462 119.291 41.7897 119.157 41.6755C119.023 41.5614 118.955 41.417 118.955 41.2428C118.955 41.0687 119.023 40.9225 119.157 40.8049C119.291 40.6878 119.449 40.629 119.63 40.629C119.811 40.629 119.968 40.6861 120.103 40.7997C120.237 40.9138 120.304 41.0617 120.304 41.2428ZM120.244 48.2063H119.006V42.7826H120.244V48.2063Z" fill="white"/>
<path d="M125.516 47.914C125.027 48.1755 124.373 48.3065 123.554 48.3065C122.079 48.3065 121.34 47.7562 121.34 46.6566C121.34 45.952 121.692 45.4319 122.397 45.0964C122.833 44.8885 123.49 44.7418 124.369 44.6538V44.3627C124.369 43.7651 124.01 43.4664 123.293 43.4664C122.843 43.4664 122.39 43.577 121.934 43.7983L121.652 43.0942C122.216 42.8194 122.836 42.6813 123.514 42.6813C124.85 42.6813 125.516 43.3056 125.516 44.5531V47.914ZM124.369 47.4714V45.2374C123.769 45.3114 123.344 45.4156 123.095 45.5495C122.69 45.7639 122.487 46.1197 122.487 46.6159C122.487 47.2868 122.868 47.6228 123.631 47.6228C123.921 47.6228 124.167 47.5721 124.369 47.4714Z" fill="white"/>
<path d="M29.5388 33.683C23.0272 37.9058 16.2658 37.6764 16.2658 37.6764C16.2658 37.6764 16.08 36.8138 16.154 35.3265C16.2285 33.8379 17.0404 34.2572 17.628 33.0826C17.8406 32.6557 18.0246 32.3616 18.3577 31.3611C18.3711 31.3191 17.9675 24.1937 17.8656 21.1694C17.8103 19.5399 17.5045 16.8202 17.1452 14.1762C16.9338 12.6096 16.458 11.368 16.2373 9.88004C15.9187 7.73165 15.5489 5.30954 15.5489 5.30954C15.2839 5.99325 14.9042 8.55281 14.5233 11.4408C14.3405 12.828 14.157 14.2892 13.9858 15.6561C13.623 18.5499 12.7191 26.2984 12.5823 26.7189C12.3761 27.3566 12.354 26.5494 12.354 26.5494C12.354 26.5494 12.8892 18.4229 13.0511 14.8594C13.1297 13.1163 13.2613 11.2015 13.4786 9.36465C13.6416 7.98558 13.853 6.64902 14.1267 5.46272C14.1267 5.46272 15.0568 2.651 15.3538 2.59509C15.6502 2.53976 16.7236 4.36726 17.087 5.99442C17.9081 9.66573 18.3927 10.1357 19.0181 13.9934C19.6133 17.6583 20.1567 20.7239 20.2306 21.2265C20.4962 23.0459 20.3646 28.7194 19.9057 30.9796C19.7968 31.5957 19.7642 31.8223 19.3617 32.2305C18.4177 33.1851 17.7468 34.3224 17.7468 35.0673C17.7468 35.8116 17.6228 35.797 17.7992 36.228C17.7992 36.228 19.0438 38.0916 26.1971 33.8268C26.1971 33.8268 28.4329 32.6563 28.4329 30.0717V3.92814C28.4329 3.92814 21.3395 1.52934 15.8762 1.52934C10.4129 1.52934 3.5723 3.9229 3.5723 3.9229V29.954C3.5723 31.5556 3.80526 34.5606 6.09284 35.5868C6.09284 35.5868 0 33.5007 0 29.9214V1.71161C0 1.71161 9.30116 7.62939e-06 15.8803 7.62939e-06C22.4594 7.62939e-06 31.9248 1.71161 31.9248 1.71161C31.9248 1.71161 31.9248 27.5226 31.9248 29.9552C31.9248 32.3878 29.5388 33.683 29.5388 33.683Z" fill="white"/>
</svg>
