<svg width="18" height="19" viewBox="0 0 18 19" fill="none" xmlns="http://www.w3.org/2000/svg">
<path fill-rule="evenodd" clip-rule="evenodd" d="M10.2483 13.3844C9.23586 13.9954 8.05434 14.3461 6.79245 14.3461C3.04108 14.3461 0 11.2466 0 7.42307C0 3.59957 3.04108 0.5 6.79245 0.5C10.5438 0.5 13.5849 3.59957 13.5849 7.42307C13.5849 8.70928 13.2408 9.91357 12.6412 10.9455C12.662 10.9634 12.6825 10.9819 12.7026 11.0009L17.4574 15.5009C18.1446 16.1514 18.1844 17.2465 17.5462 17.9469C16.9081 18.6474 15.8336 18.6879 15.1464 18.0375L10.3917 13.5375C10.3403 13.4889 10.2925 13.4377 10.2483 13.3844ZM6.90659 3.46151C4.74583 3.46151 3.01037 5.24417 3.01037 7.42305C3.01037 9.60192 4.74583 11.3846 6.90659 11.3846C9.06735 11.3846 10.8028 9.60192 10.8028 7.42305C10.8028 5.24417 9.06735 3.46151 6.90659 3.46151Z" fill="#34388E"/>
</svg>
